#N canvas -1481 -1055 1920 1027 12;
#X obj 1692 778 flatgui/knob 86 86 0 127 0 0 empty empty empty -2 -8
0 8 #fcfcfc #000000 #000000 0 1 1 2 3 4;
#X obj 1691 868 / 127;
#X obj 1691 898 *~;
#X obj 1646 963 dac~;
#X obj 1608 518 osc~ 200;
#X obj 1794 405 flatgui/knob 32 32 0 1 0 0 empty empty empty -2 -8
0 8 #fcfcfc #000000 #000000 0.29981 1 1 2 3 4;
#N canvas 0 22 450 300 (subpatch) 0;
#X array tabsendarray 64 float 3 black black;
#A 0 0.916487 0.93657 0.955555 0.972391 0.986002 0.995428 0.999776
0.998118 0.989177 0.975702 0.953306 0.92388 0.88764 0.844854 0.795837
0.740951 0.680601 0.62486 0.55557 0.482184 0.41643 0.348419 0.290285
0.219101 0.158858 0.0980174 0.0490678 1.19249e-08 -0.0368073 -0.0735643
-0.0980169 -0.122411 -0.134581 -0.134581 -0.134581 -0.122411 -0.110222
-0.0857971 -0.0613204 -0.0245413 0.0245413 0.0735648 0.122411 0.18304
0.24298 0.313682 0.382684 0.449612 0.52459 0.585798 0.653173 0.715731
0.773011 0.824589 0.870087 0.909168 0.937339 0.963776 0.980785 0.99248
0.998118 0.999936 0.997638 0.992657;
#X coords 0 1 64 -1 200 100 1;
#X restore 1587 303 graph;
#X obj 1630 545 tabsend~ tabsendarray;
#X obj 1800 898 *~;
#X obj 1608 409 tabreceive~ tabsendarray;
#X obj 1608 438 delwrite~ loopbackDel 100;
#X obj 1608 462 delread~ loopbackDel 10;
#X obj 1491 898 *~;
#X floatatom 1794 461 5 0 0 0 - - - 0 0 1, f 5;
#X obj 2183 124 loadbang;
#X msg 2183 149 1;
#X obj 1591 778 flatgui/knob 86 86 0 127 0 0 empty empty empty -2 -8
0 8 #fcfcfc #000000 #000000 0 1 1 2 3 4;
#X obj 1591 868 / 127;
#X obj 1591 898 *~;
#X obj 1038 907 +~;
#X floatatom 2116 181 5 0 1 0 - - - 0 0 1, f 5;
#X obj 233 287 hsl 128 15 0 1 0 0 empty empty empty -2 -8 0 10 #fcfcfc
#c90000 #e36a35 6000 1 0 1;
#X obj 587 794 flatgui/knob 50 50 0 1100 0 0 empty empty base\ loopback\ FM
-2 -14 0 12 #b252ff #b252ff #b252ff 242.52 1 1 4 5 6;
#X obj 587 930 s~ loopback;
#X obj 1559 987 p_sigrapher;
#X floatatom 151 287 11 0 0 0 - - - 0 0 1, f 11;
#X obj 233 324 hsl 128 15 1 44100 0 0 empty empty reaktor\ offset -2
-8 0 12 #fcfcfc #000000 #960004 200 1 0 1;
#X floatatom 164 321 9 0 0 0 - - - 0 0 1, f 9;
#X obj 466 330 vline~;
#X obj 722 887 freeverb~;
#X text 823 847 optionals;
#X obj 1196 932 hip~ 10;
#X obj 587 876 osc~ 200;
#X obj 2120 122 flatgui/knob 50 50 0 1 0 0 empty empty empty -2 -8
0 8 #b252ff #b252ff #000000 1 1 1 4 5 6;
#X obj 1255 905 hsl 128 15 120 12000 1 0 empty empty empty -2 -8 0
10 #fcfcfc #000000 #000000 0 1 0 1;
#X floatatom 1255 929 5 0 0 0 - - - 0 0 1, f 5;
#X obj 1257 964 hsl 128 15 120 16000 1 0 empty empty empty -2 -8 0
10 #fcfcfc #000000 #000000 12650 1 0 1;
#X floatatom 1257 988 5 0 0 0 - - - 0 0 1, f 5;
#X obj 1198 991 lop~ 10;
#X msg 414 329 \$1 100;
#X obj 2166 206 vline~;
#X msg 2114 205 \$1 100;
#X text 2084 96 time independent read witdh;
#X text 226 254 tabread scrubbing width;
#X obj 510 777 flatgui/knob 32 32 0 1 0 0 empty empty baseFM\ loopback\ amount
-2 -8 0 8 #c90000 #c90000 #c90000 1 1 1 2 3 6;
#X obj 836 175 bng 46 250 50 0 empty empty empty 17 7 0 10 #fcfcfc
#000000 #000000 1;
#X floatatom 510 816 5 0 0 0 - - - 0 0 1, f 5;
#X obj 587 903 *~;
#X obj 200 365 flatgui/knob 40 40 0 4 0 0 empty empty reaktor\ speed
-2 -8 0 12 #e307dc #000000 #e307dc 1.95276 1 1 2 3 6;
#X floatatom 200 404 6 0 0 0 - - - 0 0 1, f 6;
#X obj 510 863 line~ 30;
#X obj 2143 343 writesf~ 1;
#X msg 2159 312 stop;
#X msg 2152 287 start;
#X obj 738 797 flatgui/knob 32 32 0 1 0 0 empty empty empty -2 -8 0
8 #abfffc #000000 #000000 0 1 1 2 3 18;
#X floatatom 738 836 5 0 0 0 - - - 0 0 1, f 5;
#X obj 721 910 *~;
#X obj 738 863 line~ 30;
#X obj 722 752 hip~ 100;
#X obj 775 691 hsl 128 15 0 1000 0 0 empty empty empty -2 -8 0 10 #affec7
#000000 #000000 0 1 0 1;
#X obj 775 714 line 30;
#X floatatom 832 714 10 0 0 0 - - - 0 0 1, f 10;
#X obj 380 443 reaktor;
#X obj 500 443 reaktor;
#X obj 620 443 reaktor;
#X obj 740 443 reaktor;
#X obj 860 443 reaktor;
#X obj 1038 301 r~ loopback;
#X obj 934 693 +~;
#X obj 981 443 reaktor;
#X obj 1101 443 reaktor;
#X obj 1221 443 reaktor;
#X obj 1341 443 reaktor;
#X obj 1461 443 reaktor;
#X msg 397 263 0;
#X msg 529 263 0.1;
#X msg 647 259 0.2;
#X msg 775 256 0.3;
#X msg 887 254 0.4;
#X msg 985 258 0.5;
#X msg 1117 258 0.6;
#X msg 1235 254 0.7;
#X msg 1363 251 0.8;
#X msg 1475 249 0.9;
#X obj 1060 723 flatgui/knob 32 32 0 1 0 0 empty empty ignition\ inject
-2 -8 0 8 #c7c700 #000000 #000000 0 1 1 2 3 4;
#X floatatom 1060 755 5 0 0 0 - - - 0 0 1, f 5;
#X obj 1060 830 *~;
#X obj 1060 803 line~ 30;
#X msg 510 838 \$1 20;
#X msg 1060 779 \$1 20;
#X obj 184 254 line;
#X msg 184 227 0 0;
#X msg 224 227 1 80000;
#X msg 2088 262 open /users/pt/desktop/cutout_drms_01.wav;
#X obj 837 138 loadbang;
#X obj 1789 645 p_ctlinS;
#X msg 1985 663 93 3 1 1 1 0;
#X obj 1792 778 flatgui/knob 86 86 0 1 0 0 empty empty empty -2 -8
0 8 #fcfcfc #000000 #000000 0 1 1 2 3 4;
#X floatatom 1789 736 5 0 0 0 - - - 0 0 1, f 5;
#X obj 1789 713 expr pow($f1 \, 3);
#X obj 1801 330 p_ctlinS;
#X msg 1997 348 85 3 1 1 1 0.669291;
#X obj 1835 898 vline~;
#X msg 1835 873 \$1 10;
#X obj 1863 477 vline~;
#X obj 1608 492 *~;
#X obj 1658 575 p_ctlinS;
#X msg 1854 593 92 3 1 1 1 0;
#X floatatom 1658 666 5 0 0 0 - - - 0 0 1, f 5;
#X obj 1658 643 expr pow($f1 \, 3);
#X obj 1492 778 flatgui/knob 86 86 0 1 0 0 empty empty empty -2 -8
0 8 #fcfcfc #000000 #000000 0 1 1 2 3 4;
#X obj 1535 898 vline~;
#X msg 1535 873 \$1 10;
#X text 776 802 reverb loopback;
#X text 533 722 base loopback;
#X text 533 738 frequencymodulation;
#X floatatom 1862 420 5 0 0 0 - - - 0 0 1, f 5;
#X obj 1862 397 expr pow($f1 \, 3);
#X obj 1794 438 * 2000;
#X msg 1863 451 \$1 10;
#X obj 156 555 p_ctlinS;
#X msg 202 613 89 3 1 1 1 1;
#X floatatom 156 666 5 0 0 0 - - - 0 0 1, f 5;
#N canvas 735 38 375 348 audioFile_loopbackInput 0;
#X obj 128 43 openpanel;
#X obj 129 19 bng 15 250 50 0 empty empty empty 17 7 0 10 #fcfcfc #000000
#000000 1;
#X msg 193 141 start;
#X msg 241 142 stop;
#X obj 128 171 readsf~;
#X obj 63 127 flatgui/knob 32 32 0 1 0 0 empty empty empty -2 -8 0
8 #fcfcfc #000000 #000000 0 1 1 2 3 4;
#X floatatom 63 159 5 0 0 0 - - - 0 0 1, f 5;
#X obj 130 207 *~;
#X obj 63 207 line~ 30;
#X msg 128 142 open \$1;
#X obj 123 92 symbol;
#X obj 201 82 bng 15 250 50 0 empty empty empty 17 7 0 10 #fcfcfc #000000
#000000 1;
#X msg 63 183 \$1 20;
#X obj 192 110 print open;
#X obj 193 258 outlet~;
#X connect 0 0 10 0;
#X connect 1 0 0 0;
#X connect 2 0 4 0;
#X connect 3 0 4 0;
#X connect 4 0 7 0;
#X connect 5 0 6 0;
#X connect 6 0 12 0;
#X connect 7 0 14 0;
#X connect 8 0 7 1;
#X connect 9 0 4 0;
#X connect 10 0 9 0;
#X connect 10 0 13 0;
#X connect 11 0 10 0;
#X connect 12 0 8 0;
#X restore 514 965 pd audioFile_loopbackInput;
#X obj 156 643 expr pow($f1 \, 2);
#X obj 160 696 p_ctlinS;
#X msg 233 756 90 3 1 1 1100 242.52;
#X floatatom 160 807 5 0 0 0 - - - 0 0 1, f 5;
#X obj 160 784 expr pow($f1 \, 2);
#X obj 1134 715 p_ctlinS;
#X msg 1180 773 84 3 1 1 1 0;
#X floatatom 1134 826 5 0 0 0 - - - 0 0 1, f 5;
#X obj 1134 803 expr pow($f1 \, 2);
#X obj 587 852 *~;
#X obj 1361 858 loadbang;
#X msg 1360 881 0;
#X msg 1361 930 16000;
#X obj 160 836 p_ctlinS;
#X msg 233 896 91 3 1 1 1 0;
#X obj 160 936 p_ctlinS;
#X msg 233 996 83 3 1 1 4 1.95276;
#X obj 526 127 p_ctlinS;
#X obj 334 126 p_ctlinS;
#X msg 430 186 81 3 1 1 44100 694.488;
#X msg 626 188 82 3 1 1 1 0.472441;
#X obj 1512 182 bng 40 250 50 0 empty empty empty 17 7 0 10 #fc0400
#000000 #000000 1;
#X obj 1562 182 bng 40 250 50 0 empty empty empty 17 7 0 10 #00fc04
#000000 #000000 1;
#X msg 1513 237 0;
#X msg 1564 238 1;
#N canvas 173 611 591 331 dsp 0;
#X obj 101 101 cnv 15 57 57 empty \$0canv empty 20 12 0 14 #fce0e0
#fcfcfc 0;
#X obj 114 114 tgl 30 0 empty empty OFF 4 15 0 14 #fc2828 #fc2828 #fcfcfc
0 1 1;
#X obj 214 139 select 1;
#X msg 236 64 label OFF \, color 13 13 0 \, label_pos 4 15;
#X msg 235 43 label ON \, color 16 16 0 \, label_pos 7 15;
#X msg 247 173 color 6;
#X msg 366 174 color 3;
#X obj 295 237 s \$0canv;
#X obj 29 193 print;
#X obj 114 202 outlet;
#X obj 66 15 inlet;
#X obj 150 27 select 0 1;
#X msg 113 59 0;
#X msg 148 59 1;
#X connect 1 0 2 0;
#X connect 1 0 8 0;
#X connect 1 0 9 0;
#X connect 2 0 4 0;
#X connect 2 0 5 0;
#X connect 2 1 3 0;
#X connect 2 1 6 0;
#X connect 3 0 1 0;
#X connect 4 0 1 0;
#X connect 5 0 7 0;
#X connect 6 0 7 0;
#X connect 10 0 11 0;
#X connect 11 0 3 0;
#X connect 11 0 12 0;
#X connect 11 1 4 0;
#X connect 11 1 13 0;
#X connect 12 0 1 0;
#X connect 13 0 1 0;
#X coords 0 -1 1 1 59 59 2 100 100;
#X restore 1513 265 pd dsp;
#X obj 1513 329 switch~;
#N canvas 13 513 466 588 is_greater_null 0;
#X obj 98 38 inlet;
#X floatatom 117 153 5 0 0 0 - - - 0 0 1, f 5;
#X floatatom 164 153 5 0 0 0 - - - 0 0 1, f 5;
#X obj 113 302 |;
#X obj 99 244 f;
#X obj 146 244 f;
#X obj 52 197 t b b;
#X obj 113 349 != 0;
#X obj 113 412 outlet;
#X obj 215 367 print inner;
#X obj 182 38 inlet;
#X obj 98 67 > 0;
#X obj 182 67 > 0;
#X connect 0 0 11 0;
#X connect 1 0 4 1;
#X connect 1 0 6 0;
#X connect 2 0 5 1;
#X connect 2 0 6 0;
#X connect 3 0 7 0;
#X connect 3 0 9 0;
#X connect 4 0 3 0;
#X connect 5 0 3 1;
#X connect 6 0 4 0;
#X connect 6 1 5 0;
#X connect 7 0 8 0;
#X connect 10 0 12 0;
#X connect 11 0 1 0;
#X connect 12 0 2 0;
#X restore 2032 932 pd is_greater_null;
#X obj 60 370;
#X obj 60 399;
#X obj 60 428;
#X obj 60 457;
#X obj 60 486;
#X connect 0 0 1 0;
#X connect 1 0 2 1;
#X connect 2 0 3 0;
#X connect 2 0 3 1;
#X connect 2 0 24 0;
#X connect 4 0 7 0;
#X connect 4 0 8 0;
#X connect 4 0 86 0;
#X connect 5 0 118 0;
#X connect 8 0 3 1;
#X connect 8 0 3 0;
#X connect 8 0 24 0;
#X connect 9 0 10 0;
#X connect 11 0 105 0;
#X connect 12 0 3 1;
#X connect 12 0 3 0;
#X connect 12 0 24 0;
#X connect 13 0 119 0;
#X connect 14 0 15 0;
#X connect 15 0 20 0;
#X connect 15 0 33 0;
#X connect 16 0 17 0;
#X connect 17 0 18 1;
#X connect 18 0 3 0;
#X connect 18 0 3 1;
#X connect 18 0 24 0;
#X connect 19 0 31 0;
#X connect 19 0 58 0;
#X connect 20 0 41 0;
#X connect 21 0 25 0;
#X connect 21 0 66 2;
#X connect 21 0 62 2;
#X connect 21 0 63 2;
#X connect 21 0 64 2;
#X connect 21 0 65 2;
#X connect 21 0 69 2;
#X connect 21 0 70 2;
#X connect 21 0 71 2;
#X connect 21 0 72 2;
#X connect 21 0 73 2;
#X connect 22 0 133 1;
#X connect 26 0 27 0;
#X connect 26 0 39 0;
#X connect 26 0 66 3;
#X connect 26 0 62 3;
#X connect 26 0 63 3;
#X connect 26 0 64 3;
#X connect 26 0 65 3;
#X connect 26 0 69 3;
#X connect 26 0 70 3;
#X connect 26 0 71 3;
#X connect 26 0 72 3;
#X connect 26 0 73 3;
#X connect 29 0 56 0;
#X connect 31 0 38 0;
#X connect 32 0 47 0;
#X connect 33 0 20 0;
#X connect 34 0 35 0;
#X connect 34 0 31 1;
#X connect 35 0 31 1;
#X connect 36 0 37 0;
#X connect 36 0 38 1;
#X connect 37 0 38 1;
#X connect 38 0 12 0;
#X connect 39 0 28 0;
#X connect 41 0 40 0;
#X connect 44 0 46 0;
#X connect 45 0 78 0;
#X connect 45 0 77 0;
#X connect 45 0 76 0;
#X connect 45 0 75 0;
#X connect 45 0 74 0;
#X connect 45 0 79 0;
#X connect 45 0 80 0;
#X connect 45 0 81 0;
#X connect 45 0 82 0;
#X connect 45 0 83 0;
#X connect 46 0 88 0;
#X connect 47 0 23 0;
#X connect 48 0 49 0;
#X connect 49 0 66 0;
#X connect 49 0 62 0;
#X connect 49 0 63 0;
#X connect 49 0 64 0;
#X connect 49 0 65 0;
#X connect 49 0 69 0;
#X connect 49 0 70 0;
#X connect 49 0 71 0;
#X connect 49 0 72 0;
#X connect 49 0 73 0;
#X connect 50 0 47 1;
#X connect 52 0 51 0;
#X connect 53 0 51 0;
#X connect 54 0 55 0;
#X connect 55 0 57 0;
#X connect 56 0 23 0;
#X connect 57 0 56 1;
#X connect 58 0 29 0;
#X connect 58 0 133 0;
#X connect 59 0 60 0;
#X connect 59 0 61 0;
#X connect 60 0 58 1;
#X connect 62 0 68 0;
#X connect 63 0 68 0;
#X connect 64 0 68 0;
#X connect 65 0 68 0;
#X connect 66 0 68 0;
#X connect 67 0 66 4;
#X connect 67 0 65 4;
#X connect 67 0 64 4;
#X connect 67 0 63 4;
#X connect 67 0 62 4;
#X connect 67 0 69 4;
#X connect 67 0 70 4;
#X connect 67 0 71 4;
#X connect 67 0 72 4;
#X connect 67 0 73 4;
#X connect 68 0 19 0;
#X connect 68 0 24 0;
#X connect 69 0 68 0;
#X connect 70 0 68 0;
#X connect 71 0 68 0;
#X connect 72 0 68 0;
#X connect 73 0 68 0;
#X connect 74 0 62 1;
#X connect 75 0 63 1;
#X connect 76 0 64 1;
#X connect 77 0 65 1;
#X connect 78 0 66 1;
#X connect 79 0 69 1;
#X connect 80 0 70 1;
#X connect 81 0 71 1;
#X connect 82 0 72 1;
#X connect 83 0 73 1;
#X connect 84 0 85 0;
#X connect 85 0 89 0;
#X connect 86 0 23 0;
#X connect 87 0 86 1;
#X connect 88 0 50 0;
#X connect 89 0 87 0;
#X connect 90 0 21 0;
#X connect 91 0 90 0;
#X connect 92 0 90 0;
#X connect 93 0 51 0;
#X connect 94 0 45 0;
#X connect 95 0 99 0;
#X connect 95 1 96 0;
#X connect 96 0 95 1;
#X connect 97 0 103 0;
#X connect 97 0 151 1;
#X connect 98 0 97 0;
#X connect 99 0 98 0;
#X connect 100 0 117 0;
#X connect 100 1 101 0;
#X connect 101 0 100 1;
#X connect 102 0 8 1;
#X connect 103 0 102 0;
#X connect 104 0 105 1;
#X connect 105 0 4 0;
#X connect 106 0 109 0;
#X connect 106 1 107 0;
#X connect 107 0 106 1;
#X connect 108 0 110 0;
#X connect 109 0 108 0;
#X connect 110 0 112 0;
#X connect 110 0 151 0;
#X connect 111 0 12 1;
#X connect 112 0 111 0;
#X connect 116 0 5 0;
#X connect 117 0 116 0;
#X connect 118 0 13 0;
#X connect 119 0 104 0;
#X connect 120 0 124 0;
#X connect 120 1 121 0;
#X connect 121 0 120 1;
#X connect 122 0 44 0;
#X connect 123 0 23 0;
#X connect 124 0 122 0;
#X connect 125 0 22 0;
#X connect 125 1 126 0;
#X connect 126 0 125 1;
#X connect 128 0 127 0;
#X connect 129 0 132 0;
#X connect 129 1 130 0;
#X connect 130 0 129 1;
#X connect 131 0 84 0;
#X connect 132 0 131 0;
#X connect 133 0 32 0;
#X connect 134 0 135 0;
#X connect 135 0 136 0;
#X connect 135 0 34 0;
#X connect 136 0 36 0;
#X connect 137 0 54 0;
#X connect 137 1 138 0;
#X connect 138 0 137 1;
#X connect 139 0 48 0;
#X connect 139 1 140 0;
#X connect 140 0 139 1;
#X connect 141 0 21 0;
#X connect 141 1 144 0;
#X connect 142 0 26 0;
#X connect 142 1 143 0;
#X connect 143 0 142 1;
#X connect 144 0 141 1;
#X connect 145 0 147 0;
#X connect 146 0 148 0;
#X connect 147 0 149 0;
#X connect 148 0 149 0;
#X connect 149 0 150 0;
#X connect 151 0 149 0;
#X connect 152 0 153 0;
#X connect 153 0 154 0;
#X connect 154 0 155 0;
#X connect 155 0 156 0;
